<svg id="Capa_1" enable-background="new 0 0 512.39 512.39" height="22" viewBox="0 0 512.39 512.39" width="22" xmlns="http://www.w3.org/2000/svg"><g><g><path d="m467.565 218.388c-34.894-118.462-162.26-186.87-280.262-150.451-101.762 31.406-164.86 128.813-156.951 230.631.504 6.495 4.87 11.996 11.046 14.068 12.277 4.118 22.468 13.871 26.608 27.181 4.126 13.264 1.297 27.026-6.418 37.369-3.827 5.131-4.291 12.072-1.05 17.592 51.384 87.535 157.925 131.506 259.021 100.062 116.748-36.313 182.433-159.576 148.006-276.452z" fill="#e8edf2"/><path d="m162.043 394.777c-3.24-5.521-2.777-12.461 1.05-17.593 7.715-10.343 10.544-24.104 6.418-37.369-4.14-13.31-14.331-23.063-26.608-27.181-6.176-2.072-10.542-7.573-11.046-14.068-7.908-101.816 55.189-199.223 156.951-230.629 4.75-1.466 9.517-2.744 14.291-3.874-37.199-8.74-77.003-8.099-115.796 3.874-101.762 31.406-164.86 128.813-156.951 230.631.505 6.494 4.87 11.996 11.046 14.068 12.277 4.118 22.468 13.871 26.608 27.181 4.125 13.264 1.297 27.026-6.418 37.369-3.827 5.131-4.291 12.072-1.05 17.593 48.732 83.016 147.072 126.839 243.329 104.322-58.626-13.753-110.484-50.935-141.824-104.324z" fill="#d9e7ec"/><g fill="#c5d3dd"><path d="m474.071 247.502c-20.61 3.1-40.96-9.21-47.34-29.73-6.01-19.32 2.31-39.66 18.93-49.61l.01-.01c9.19 15.47 16.6 32.28 21.89 50.24 2.85 9.68 5.01 19.4 6.51 29.11z"/><path d="m315.971 495.902.01.02c-31.04 9.1-62.52 11.14-92.7 7.04v-.01c1.55-18.55 14.07-35.19 32.93-41.06 24.83-7.72 51.22 6.15 58.94 30.97.31 1.01.58 2.03.82 3.04z"/><path d="m371.011 339.152c8.51 27.35-6.77 56.41-34.11 64.92-27.35 8.5-56.41-6.77-64.92-34.12s6.77-56.41 34.11-64.91c27.35-8.51 56.41 6.76 64.92 34.11z"/><path d="m196.181 312.622c4.47 14.38-3.56 29.65-17.93 34.12s-29.64-3.56-34.11-17.93 3.55-29.64 17.93-34.11c14.37-4.47 29.64 3.55 34.11 17.92z"/><path d="m307.481 202.832c4.9 15.74-3.89 32.47-19.64 37.37-15.74 4.89-32.47-3.9-37.36-19.64-4.9-15.74 3.89-32.47 19.64-37.36 15.74-4.9 32.47 3.89 37.36 19.63z"/><path d="m201.351 64.102.01.02c-.79 17.56-12.4 33.55-30.16 39.07-14.68 4.57-29.96.85-40.81-8.49 17.2-11.3 36.26-20.39 56.91-26.77 4.67-1.44 9.36-2.72 14.05-3.83z"/></g><g><path d="m479.892 76.212h-93.147v-64.852c0-2.132 1.728-3.86 3.86-3.86h89.286c1.988 0 3.353 2 2.629 3.851l-11.927 30.505 11.927 30.505c.725 1.851-.64 3.851-2.628 3.851z" fill="#f37c7c"/></g></g><g><path d="m76.262 144.752c1.398 1.155 3.09 1.718 4.772 1.718 2.16 0 4.304-.928 5.787-2.724 12.637-15.298 27.213-28.658 43.322-39.816 8.42 5.727 18.221 8.727 28.212 8.727 5.029 0 10.105-.757 15.075-2.303 18.358-5.709 31.779-21.426 34.823-40.098 30.349-6.397 61.953-6.112 92.456.953 4.036.934 8.064-1.579 8.999-5.614s-1.579-8.064-5.614-8.999c-39.422-9.131-80.572-7.688-119.002 4.174-43.189 13.33-81.17 38.719-109.836 73.423-2.639 3.194-2.188 7.921 1.006 10.559zm113.253-69.648c.725-.224 1.453-.437 2.18-.653-3.761 10.134-12.052 18.262-22.721 21.581-8.199 2.551-16.806 2.034-24.438-1.239 14.093-8.188 29.16-14.807 44.979-19.689z"/><path d="m308.322 312.2c4.543-1.413 9.271-2.078 14.025-1.993 4.108.1 7.563-3.214 7.642-7.356.078-4.141-3.215-7.563-7.356-7.641-6.381-.124-12.688.776-18.766 2.667-31.251 9.721-48.768 43.054-39.048 74.305 4.708 15.139 15.031 27.538 29.065 34.913 8.641 4.541 18.05 6.842 27.539 6.842 5.925 0 11.882-.897 17.7-2.707 15.139-4.708 27.538-15.031 34.913-29.065 7.376-14.035 8.844-30.101 4.136-45.239-3.718-11.953-10.966-22.246-20.963-29.767-3.31-2.492-8.014-1.826-10.502 1.484-2.49 3.31-1.826 8.012 1.484 10.502 7.466 5.618 12.88 13.306 15.657 22.235 3.519 11.313 2.421 23.319-3.091 33.807-5.511 10.488-14.776 18.201-26.09 21.72-11.313 3.519-23.319 2.42-33.807-3.09-10.487-5.511-18.201-14.777-21.72-26.09-7.262-23.354 5.828-48.263 29.182-55.527z"/><path d="m296.355 178.639c-8.829-4.641-18.939-5.564-28.466-2.602-9.526 2.963-17.328 9.458-21.968 18.289-4.641 8.831-5.565 18.94-2.602 28.466 4.972 15.985 19.761 26.259 35.686 26.259 3.665 0 7.391-.544 11.07-1.688 9.525-2.963 17.327-9.458 21.968-18.289 4.642-8.831 5.565-18.941 2.603-28.466-2.965-9.526-9.46-17.328-18.291-21.969zm2.409 43.457c-2.777 5.285-7.445 9.171-13.146 10.944-11.764 3.66-24.316-2.936-27.977-14.702-1.773-5.7-1.22-11.749 1.557-17.033 2.777-5.285 7.445-9.171 13.146-10.944 2.191-.682 4.433-1.02 6.664-1.02 3.573 0 7.117.867 10.37 2.576 5.284 2.777 9.17 7.445 10.943 13.146 1.772 5.7 1.219 11.749-1.557 17.033z"/><path d="m186.325 289.958c-8.216-4.318-17.623-5.178-26.487-2.421-18.297 5.691-28.553 25.207-22.862 43.504 2.757 8.864 8.801 16.123 17.018 20.441 5.059 2.659 10.567 4.006 16.124 4.006 3.468 0 6.957-.525 10.363-1.585 8.863-2.757 16.123-8.8 20.441-17.017s5.178-17.624 2.421-26.487-8.801-16.123-17.018-20.441zm1.318 39.95c-2.454 4.67-6.58 8.105-11.618 9.672-5.037 1.567-10.383 1.079-15.054-1.376-4.67-2.454-8.105-6.58-9.672-11.618-3.234-10.399 2.595-21.491 12.994-24.726 1.937-.603 3.918-.901 5.89-.901 3.158 0 6.29.766 9.164 2.277 4.67 2.454 8.105 6.58 9.672 11.618s1.079 10.384-1.376 15.054z"/><path d="m489.506 69.629-10.859-27.773 10.858-27.771c1.244-3.179.838-6.761-1.087-9.581-1.925-2.82-5.112-4.504-8.526-4.504h-89.286c-6.264 0-11.36 5.096-11.36 11.36v77.314c-13.707-8.927-28.338-16.469-43.586-22.364-3.861-1.496-8.206.428-9.699 4.291-1.494 3.863.427 8.207 4.291 9.7 17.358 6.711 33.872 15.681 48.994 26.52v34.103c0 4.142 3.357 7.5 7.5 7.5s7.5-3.358 7.5-7.5v-22.332c5.775 4.947 11.295 10.176 16.499 15.683 9.383 9.931 17.672 20.566 24.875 31.831-15.653 12.867-22.232 34.027-16.053 53.893 6.57 21.122 26.453 35.369 48.055 35.468 5.396 43.794-2.77 88.144-23.983 127.823-26.34 49.269-69.856 85.81-122.798 103.25-4.811-12.052-13.645-21.901-25.256-28.003-12.905-6.782-27.678-8.132-41.598-3.802-18.776 5.84-32.63 21.01-36.951 39.748-14.501-2.497-28.845-6.504-42.88-12.034-44.844-17.669-82.897-50.153-107.15-91.467-1.699-2.895-1.466-6.549.594-9.311 9.403-12.606 12.232-29.084 7.568-44.081-4.683-15.056-16.416-27.042-31.385-32.064-3.348-1.124-5.685-4.082-5.954-7.538-3.511-45.2 7.152-89.706 30.837-128.705 2.15-3.541 1.023-8.153-2.518-10.304-3.54-2.15-8.154-1.022-10.304 2.518-25.325 41.701-36.726 89.301-32.971 137.652.735 9.471 7.07 17.555 16.138 20.597 10.415 3.494 18.576 11.83 21.832 22.298 3.243 10.426 1.273 21.887-5.268 30.657-5.675 7.609-6.267 17.765-1.506 25.874 25.942 44.193 66.637 78.937 114.587 97.83 26.998 10.637 55.743 15.987 84.538 15.986 23.128 0 46.291-3.453 68.591-10.389 58.317-18.139 106.29-57.787 135.08-111.64 28.761-53.797 35.115-115.625 17.893-174.092-10.247-34.788-28.116-65.841-53.111-92.295-8.429-8.922-17.619-17.171-27.402-24.683v-15.58h85.646c3.414 0 6.602-1.684 8.526-4.504 1.926-2.82 2.332-6.402 1.089-9.579zm-257.497 426.893c3.476-12.956 13.279-23.373 26.433-27.465 10.095-3.14 20.806-2.161 30.165 2.757 7.984 4.195 14.156 10.834 17.75 18.961-24.6 6.297-49.626 8.21-74.348 5.747zm233.212-256.156c-14.219-1.06-26.962-10.775-31.331-24.823-4.099-13.179-.213-27.171 9.487-36.301 7.047 13.018 12.731 26.793 16.994 41.265 1.938 6.58 3.548 13.206 4.85 19.859zm-1.612-195.779 9.433 24.125h-78.796v-53.712h78.796l-9.433 24.125c-.687 1.756-.687 3.706 0 5.462z"/></g></g></svg>