<svg id="Capa_1" enable-background="new 0 0 511.438 511.438" height="22" viewBox="0 0 511.438 511.438" width="22" xmlns="http://www.w3.org/2000/svg"><g><g><g><path d="m280.999 456.261 16.661 21.34c1.214 1.555 1.208 3.74-.016 5.287l-16.645 21.053h-50.56l-16.645-21.053c-1.224-1.548-1.231-3.732-.016-5.287l16.661-21.34 16.198-19.015 22.005.589z" fill="#d9e7ec"/></g><path d="m420.387 384.299 34.353 36.71-16.216 49.223-6.566 23.399h-21.341v-23.399-34.315l-22.569-22.569-28.288-31.867 38.239-24.827z" fill="#d9e7ec"/><path d="m123.389 413.348-22.569 22.569v53.972h-21.111l-6.795-19.657-16.217-49.223 34.353-36.71 35.401-24.898 22.75 35.374z" fill="#d9e7ec"/><path d="m407.919 67.011-17.672-10.21h-249.998l-36.72 10.22-.01-.01c-8.2 7.57-15.83 15.75-22.83 24.46l32.106 39.652h300.144l17.8-39.642.01-.01c-7-8.71-14.63-16.889-22.83-24.46z" fill="#e8edf2"/><path d="m462.889 220.136-400.367-10.135-30.223 42.771c3.64 39.38 17.45 75.81 38.78 106.63h.01l81.839 42.618 235.12-10.128 52.31-32.49c21.33-30.82 35.14-67.25 38.78-106.63z" fill="#e8edf2"/><path d="m164.445 359.401c-21.33-30.82-35.14-67.25-38.78-106.63-.64-6.88-.96-13.85-.96-20.89 0-6.837.311-13.602.91-20.284l-63.094-1.597-30.223 42.771c3.64 39.38 17.45 75.81 38.78 106.63h.01l81.839 42.618 47.558-2.049c-13.575-12.008-25.698-25.622-36.04-40.569z" fill="#d9e7ec"/><path d="m440.349 359.401h.01c-40.49 58.52-108.09 96.86-184.64 96.86s-144.15-38.34-184.64-96.86h.01c50.61 17.4 114.78 27.81 184.63 27.81s134.02-10.41 184.63-27.81z" fill="#d691c6"/><path d="m174.058 91.467c7-8.71 14.63-16.89 22.83-24.46 3.832-3.539 7.789-6.943 11.861-10.21h-68.497l-36.72 10.22-.01-.01c-8.2 7.57-15.83 15.75-22.83 24.46l32.106 39.652h35.761c7.116-14.137 15.677-27.422 25.499-39.652z" fill="#d9e7ec"/><path d="m480.099 231.881c0 7.04-.32 14.01-.96 20.89h-.02c-54.22 26.84-134.2 43.81-223.4 43.81s-169.18-16.97-223.4-43.81h-.02c-.64-6.88-.96-13.85-.96-20.89 0-53.14 18.48-101.97 49.35-140.41l.01.01c49.01 15.49 109.52 24.65 175.02 24.65s126.01-9.16 175.02-24.65l.01-.01c30.87 38.44 49.35 87.27 49.35 140.41z" fill="#d691c6"/><g><path d="m125.668 252.77c-.64-6.88-.96-13.85-.96-20.89 0-45.164 13.346-87.205 36.305-122.41-29.058-4.222-56.087-10.334-80.311-17.99l-.01-.01c-30.87 38.44-49.35 87.27-49.35 140.41 0 7.04.32 14.01.96 20.89h.02c27.128 13.429 60.705 24.386 98.658 31.985-2.513-10.399-4.304-21.078-5.312-31.985z" fill="#cd7cbb"/><path d="m432.596 239.727c2.106-.741 3.502-2.744 3.503-4.976l.001-2.87c0-36.504-10.909-70.504-29.625-98.929-1.243-1.887-3.509-2.808-5.712-2.306-44.372 10.117-93.847 15.485-145.043 15.485s-100.672-5.368-145.043-15.485c-2.203-.502-4.47.419-5.712 2.306-18.717 28.424-29.625 62.424-29.625 98.929l.001 2.87c.001 2.232 1.397 4.235 3.503 4.976 49.408 17.393 111.241 26.858 176.878 26.858s127.467-9.465 176.874-26.858z" fill="#a7eedc"/><g fill="#f37c7c"><circle cx="152.928" cy="333.893" r="16.267"/><circle cx="94.926" cy="319.626" r="13.502"/><circle cx="358.509" cy="333.893" r="16.267"/><circle cx="416.512" cy="319.626" r="13.502"/></g><g id="XMLID_678_"><g><path d="m282.719 9.111c-8.85-1.06-17.86-1.61-27-1.61s-18.15.55-27 1.61l-15.981 15.755 1.463 50.016 14.838 10.719c8.81.35 17.71.53 26.68.53s17.87-.18 26.68-.53l12.53-9.549v-50.6z" fill="#cd7cbb"/><path d="m338.849 23.411-13.747 7.305v45.044l13.037 5.171c24.7-3.22 48.14-7.89 69.77-13.91l.01-.01c-20-18.469-43.36-33.34-69.07-43.6z" fill="#cd7cbb"/><path d="m338.849 23.411-.71 57.52c-17.99 2.34-36.65 3.91-55.74 4.67l.32-76.49c19.6 2.35 38.42 7.22 56.13 14.3z" fill="#d691c6"/><path d="m265.955 23.411c7.123-2.847 14.427-5.331 21.888-7.443l-5.124-6.857c-8.85-1.06-17.86-1.61-27-1.61s-18.15.55-27 1.61l-15.981 15.755.824 28.186c15.936-12.093 33.528-22.112 52.393-29.641z" fill="#c365af"/><path d="m338.849 23.411-.71 57.52c-17.99 2.34-36.65 3.91-55.74 4.67l.32-76.49c19.6 2.35 38.42 7.22 56.13 14.3z" fill="#d691c6"/><path d="m172.589 23.411c-25.71 10.26-49.07 25.13-69.07 43.6l.01.01c21.63 6.02 45.07 10.69 69.77 13.91l14.515-8.551v-45.76z" fill="#c365af"/><path d="m229.039 85.601c-19.09-.76-37.75-2.33-55.74-4.67l-.71-57.52c17.71-7.08 36.53-11.95 56.13-14.3z" fill="#d691c6"/></g><g><g id="XMLID_680_"><g><g fill="#cd7cbb"><path d="m183.624 383.4c-41.729-4.494-79.947-12.794-112.535-23.998h-.01c40.49 58.52 108.09 96.86 184.64 96.86 16.033 0 31.72-1.697 46.801-4.894-46.586-9.843-87.889-34.131-118.896-67.968z"/><path d="m374.079 376.611v.01c-27.98 47.94-69.57 78.67-116.14 79.62-.74.02-1.48.02-2.22.02 17.72 0 33.69-27.1 44.95-70.51 25.71-1.68 50.33-4.79 73.41-9.14z"/><path d="m255.71 456.261c-.74 0-1.48 0-2.22-.02-46.57-.95-88.16-31.68-116.14-79.62v-.01c23.08 4.35 47.7 7.46 73.41 9.14 11.26 43.41 27.23 70.51 44.95 70.51z"/><path d="m302.421 12.369c-6.463-1.367-13.047-2.459-19.703-3.258l-.035 8.38c6.453-1.997 13.051-3.707 19.738-5.122z"/></g><path d="m125.664 252.775c-.64-6.88-.96-13.85-.96-20.89 0-33.74 7.459-65.737 20.8-94.445-11.902-1.95-23.533-4.214-34.829-6.789-2.203-.502-4.47.419-5.712 2.306-18.717 28.425-29.625 62.424-29.625 98.929l.001 2.87c0 2.232 1.397 4.235 3.502 4.976 14.603 5.141 30.297 9.59 46.848 13.306-.008-.086-.017-.178-.025-.263z" fill="#86e8d0"/><path d="m143.093 320.958c-3.902 2.972-6.432 7.652-6.432 12.935 0 8.984 7.283 16.267 16.267 16.267 1.737 0 3.407-.278 4.976-.782-5.584-9.065-10.541-18.559-14.811-28.42z" fill="#f37c7c"/><path d="m182.095 82.008c4.692-5.224 9.633-10.235 14.79-14.997 9.878-9.122 20.578-17.362 31.973-24.606l-.139-33.294c-19.6 2.35-38.42 7.22-56.13 14.3l.71 57.52c2.916.38 5.846.738 8.796 1.077z" fill="#cd7cbb"/></g></g></g></g><path d="m152.812 503.938h-123.523c-3.239 0-5.434-3.297-4.185-6.285l10.158-24.303c.789-1.888 2.635-3.117 4.682-3.117h102.213c2.046 0 3.892 1.229 4.682 3.117l10.158 24.303c1.249 2.988-.946 6.285-4.185 6.285z" fill="#b6c4cf"/><path d="m358.626 503.938h123.523c3.239 0 5.434-3.297 4.185-6.285l-10.158-24.303c-.789-1.888-2.635-3.117-4.682-3.117h-102.214c-2.046 0-3.892 1.229-4.682 3.117l-10.158 24.303c-1.248 2.988.947 6.285 4.186 6.285z" fill="#b6c4cf"/></g><g fill="#c365af"><path d="m253.499 456.241c.74.02 1.48.02 2.22.02-13.208 0-25.453-15.071-35.491-40.717-13.343-9.374-25.614-20.151-36.603-32.143-15.976-1.721-31.451-3.995-46.275-6.789l.009.01c27.98 47.94 69.57 78.67 116.14 79.619z"/><path d="m255.719 456.261c.74 0 1.48 0 2.22-.02 12.394-.253 24.471-2.628 35.997-6.863-6.103-1.543-12.136-3.346-18.029-5.377-6.323 7.939-13.12 12.26-20.188 12.26z"/></g></g><g><path d="m443.599 234.754.001-2.873c0-36.756-10.672-72.391-30.861-103.055-2.948-4.474-8.431-6.68-13.644-5.492-43.893 10.008-93.471 15.297-143.376 15.297s-99.483-5.29-143.375-15.297c-5.214-1.19-10.696 1.018-13.645 5.493-20.189 30.663-30.861 66.298-30.861 103.057l.001 2.868c0 5.415 3.421 10.258 8.512 12.05 10.309 3.628 21.35 6.975 32.814 9.947 4.009 1.041 8.103-1.369 9.142-5.378 1.04-4.01-1.368-8.103-5.378-9.142-10.498-2.721-20.612-5.763-30.091-9.049v-1.298c0-33.334 9.54-65.666 27.602-93.598 44.612 10.042 94.812 15.348 145.279 15.348s100.667-5.306 145.279-15.348c18.063 27.933 27.602 60.263 27.602 93.595v1.301c-48.848 16.952-108.58 25.906-172.881 25.906-39.228 0-76.931-3.367-112.064-10.008-4.064-.767-7.993 1.906-8.762 5.977-.77 4.07 1.906 7.993 5.977 8.763 36.049 6.814 74.69 10.269 114.85 10.269 66.64 0 128.664-9.435 179.368-27.284 5.09-1.793 8.511-6.636 8.511-12.049z"/><path d="m152.929 310.126c-13.105 0-23.768 10.662-23.768 23.767s10.662 23.767 23.768 23.767c13.104 0 23.767-10.662 23.767-23.767s-10.663-23.767-23.767-23.767zm0 32.534c-4.834 0-8.768-3.933-8.768-8.767s3.934-8.767 8.768-8.767 8.767 3.933 8.767 8.767-3.933 8.767-8.767 8.767z"/><path d="m94.926 298.625c-11.58 0-21.002 9.421-21.002 21.001 0 11.581 9.422 21.002 21.002 21.002s21.001-9.421 21.001-21.002c0-11.58-9.421-21.001-21.001-21.001zm0 27.003c-3.31 0-6.002-2.692-6.002-6.002 0-3.309 2.692-6.001 6.002-6.001 3.309 0 6.001 2.692 6.001 6.001 0 3.31-2.693 6.002-6.001 6.002z"/><path d="m358.509 357.66c13.105 0 23.768-10.662 23.768-23.767s-10.662-23.767-23.768-23.767c-13.104 0-23.767 10.662-23.767 23.767s10.662 23.767 23.767 23.767zm0-32.534c4.834 0 8.768 3.933 8.768 8.767s-3.934 8.767-8.768 8.767-8.767-3.933-8.767-8.767 3.933-8.767 8.767-8.767z"/><path d="m416.512 340.628c11.58 0 21.002-9.421 21.002-21.002 0-11.58-9.422-21.001-21.002-21.001s-21.001 9.421-21.001 21.001c0 11.581 9.421 21.002 21.001 21.002zm0-27.003c3.31 0 6.002 2.692 6.002 6.001 0 3.31-2.692 6.002-6.002 6.002-3.309 0-6.001-2.692-6.001-6.002 0-3.309 2.692-6.001 6.001-6.001z"/><path d="m493.254 494.76-10.159-24.306c-1.963-4.691-6.517-7.722-11.601-7.722h-22.604l12.973-39.376c.858-2.604.227-5.469-1.646-7.471l-29.656-31.69c36.889-42.222 57.039-95.716 57.039-152.313 0-61.938-24.12-120.168-67.916-163.965-43.797-43.797-102.028-67.917-163.965-67.917s-120.168 24.12-163.965 67.917c-43.796 43.796-67.916 102.027-67.916 163.965 0 56.597 20.151 110.091 57.039 152.313l-29.656 31.69c-1.873 2.002-2.505 4.867-1.646 7.471l12.973 39.376h-22.605c-5.084 0-9.638 3.031-11.602 7.725l-10.157 24.303c-1.557 3.724-1.15 7.953 1.087 11.313s5.982 5.365 10.019 5.365h123.522c4.036 0 7.781-2.005 10.019-5.365s2.644-7.588 1.087-11.313l-10.158-24.302c-1.961-4.693-6.515-7.726-11.602-7.726h-33.838v-23.709l16.015-16.015c27.941 19.294 59.624 32.096 93.177 37.626l-11.714 15.002c-2.129 2.726-2.117 6.555.028 9.268l9.121 11.534h-3.238c-4.143 0-7.5 3.358-7.5 7.5s3.357 7.5 7.5 7.5h88.959c4.143 0 7.5-3.358 7.5-7.5s-3.357-7.5-7.5-7.5h-4.18l9.121-11.534c2.146-2.713 2.157-6.542.028-9.268l-11.714-15.002c33.552-5.531 65.236-18.333 93.177-37.626l16.015 16.015v23.709h-33.835c-5.087 0-9.641 3.032-11.602 7.725l-10.158 24.304c-1.557 3.724-1.15 7.953 1.087 11.313s5.982 5.365 10.019 5.365h123.522c4.036 0 7.781-2.005 10.019-5.365s2.644-7.59 1.087-11.314zm-203.355-417.028v-60.055c13.97 2.199 27.601 5.742 40.739 10.567v46.035c-13.289 1.58-26.9 2.733-40.739 3.453zm55.74-43.323c16.577 7.558 32.218 17.24 46.58 28.916-14.844 3.617-30.43 6.617-46.58 8.972zm-70.74-18.562v62.504c-6.358.184-12.754.281-19.181.281-6.426 0-12.823-.093-19.181-.277v-62.508c6.344-.552 12.74-.847 19.182-.847s12.838.295 19.18.847zm-155.694 47.489c14.366-11.68 30.011-21.366 46.594-28.927v37.883c-16.148-2.355-31.75-5.34-46.594-8.956zm61.594-35.092c13.139-4.825 26.769-8.369 40.739-10.567v60.056c-13.836-.72-27.453-1.863-40.739-3.443zm-139.42 236.995c56.458 24.77 133.569 38.847 214.339 38.847 51.733 0 102.752-5.774 147.54-16.699 4.024-.982 6.49-5.04 5.509-9.064-.98-4.023-5.038-6.493-9.063-5.509-43.643 10.645-93.432 16.272-143.985 16.272-82.705 0-161.199-14.996-216.301-41.216-.384-5.295-.58-10.627-.58-15.989 0-48.253 15.664-94.093 44.567-131.737 50.683 15.361 110.108 23.488 172.314 23.488 31.644 0 62.837-2.122 92.714-6.307 4.103-.574 6.962-4.366 6.388-8.468-.575-4.103-4.375-6.97-8.468-6.387-29.19 4.088-59.684 6.162-90.634 6.162-58.279 0-113.962-7.268-161.906-21.047 2.757-3.086 5.599-6.113 8.549-9.062 1.075-1.075 2.165-2.131 3.259-3.18 44.63 11.961 96.403 18.289 150.099 18.289 53.697 0 105.47-6.328 150.099-18.289 1.094 1.05 2.183 2.105 3.259 3.18 2.949 2.949 5.791 5.976 8.547 9.061-12.758 3.66-26.207 6.906-40.163 9.659-4.064.802-6.709 4.746-5.907 8.81.705 3.574 3.841 6.05 7.351 6.05.48 0 .97-.046 1.459-.143 16.671-3.288 32.679-7.255 47.683-11.797 28.893 37.641 44.553 83.474 44.553 131.72 0 5.362-.196 10.694-.58 15.989-12.669 6.025-26.778 11.552-42.037 16.439-3.944 1.264-6.118 5.486-4.854 9.431 1.02 3.184 3.968 5.214 7.141 5.214.758 0 1.529-.116 2.29-.359 12.618-4.042 24.492-8.521 35.499-13.353-4.85 31.581-16.565 61.45-34.412 87.829-51.024 17.187-114.795 26.644-179.927 26.644s-128.903-9.457-179.927-26.644c-17.85-26.382-29.565-56.252-34.415-87.834zm111.475 121.694c16.848 2.65 34.243 4.64 52.059 5.939 5.054 18.278 12.133 37.685 21.654 51.568-27.654-8.253-53.26-28.127-73.713-57.507zm68.083 7.423c-.1-.165-.176-.344-.271-.512 11.544.573 23.236.871 35.053.871 11.775 0 23.429-.292 34.933-.86-11.846 40.256-25.588 54.908-34.933 54.908-9.306-.001-22.97-14.537-34.782-54.407zm85.585-1.472c17.815-1.299 35.209-3.289 52.055-5.94-20.448 29.37-46.048 49.239-73.693 57.495 9.515-13.879 16.585-33.286 21.638-51.555zm-158.162 103.554h-114.62l7.818-18.706h98.983zm-52.843-65.825c-1.406 1.406-2.196 3.314-2.196 5.303v26.815h-14.982l-13.127-39.846 25.911-27.688c.212.214.418.434.631.647 6.488 6.488 13.3 12.533 20.387 18.143zm6.844-45.374c-3.752-3.752-7.346-7.62-10.787-11.591 13.177 3.731 26.906 6.973 41.083 9.731 12.222 20.251 26.618 37.053 42.496 49.973-26.935-10.765-51.662-26.983-72.792-48.113zm187.828 94.983-12.824 16.215h-43.293l-12.824-16.215 13.585-17.398c6.905.613 13.87.938 20.886.938s13.981-.326 20.886-.938zm88.568-96.834c14.187-2.761 27.924-6.01 41.11-9.745-3.441 3.973-7.037 7.842-10.791 11.596-21.13 21.131-45.86 37.349-72.798 48.115 15.874-12.917 30.258-29.724 42.479-49.966zm37.164 47.225-16.625-16.625c7.087-5.61 13.899-11.655 20.387-18.143.213-.213.419-.433.631-.647l25.911 27.688-13.127 39.846h-14.981v-26.815c0-1.99-.79-3.897-2.196-5.304zm-52.844 65.825 7.818-18.706h98.983l7.818 18.706z"/></g></g></svg>